<?xml version="1.0" encoding="utf-8"?>
<!-- Generator: Adobe Illustrator 27.3.1, SVG Export Plug-In . SVG Version: 6.00 Build 0)  -->
<svg version="1.1" id="Layer_1" xmlns="http://www.w3.org/2000/svg" xmlns:xlink="http://www.w3.org/1999/xlink" x="0px" y="0px"
	 width="266" height="78" viewBox="0 0 266 78" enable-background="new 0 0 266 78"
	 xml:space="preserve">
<g>
	<g>
		<path d="M12.1,16.425h11.424v1.823h-9.251v5.594l9.187-0.073v1.798l-9.187,0.073v7.617H12.1V16.425z"/>
		<path d="M29.945,16.418v9.814c0,3.714,1.673,5.288,3.921,5.288c2.498,0,4.096-1.623,4.096-5.288v-9.814h2.198v9.666
			c0,5.091-2.722,7.182-6.369,7.182c-3.447,0-6.044-1.943-6.044-7.084v-9.765H29.945z"/>
		<path d="M59.511,33.258V16.425h2.373l5.395,8.517c1.249,1.973,2.223,3.746,3.022,5.47l0.05-0.025
			c-0.2-2.248-0.25-4.296-0.25-6.918v-7.043h2.048v16.833H69.95l-5.345-8.542c-1.174-1.873-2.298-3.796-3.147-5.619l-0.075,0.025
			c0.125,2.123,0.175,4.146,0.175,6.943v7.193H59.511z"/>
		<path fill="#AB7B60" d="M113.724,25.37h-6.543v6.069h7.293v1.823h-9.466V16.429h9.091v1.823h-6.918v5.32h6.543V25.37z"/>
		<path fill="#AB7B60" d="M133.714,30.453c0.974,0.581,2.397,1.066,3.896,1.066c2.223,0,3.521-1.138,3.521-2.785
			c0-1.526-0.899-2.398-3.172-3.246c-2.747-0.945-4.446-2.325-4.446-4.626c0-2.543,2.173-4.432,5.445-4.432
			c1.723,0,2.972,0.387,3.721,0.799l-0.599,1.72c-0.549-0.291-1.673-0.775-3.197-0.775c-2.298,0-3.172,1.332-3.172,2.446
			c0,1.526,1.024,2.277,3.347,3.149c2.847,1.066,4.296,2.398,4.296,4.796c0,2.519-1.923,4.699-5.894,4.699
			c-1.623,0-3.396-0.46-4.295-1.041L133.714,30.453z"/>
		<path fill="#AB7B60" d="M156.285,25.37l-6.918,0v6.069l6.918,0.078v1.746l-9.091,0V16.429h9.091v1.823h-6.918v5.32l6.918-0.01
			V25.37z"/>
	</g>
	<circle cx="18.541" cy="21.05" r="1.07"/>
	<circle cx="18.541" cy="29.418" r="1.07"/>
	<circle fill="#AB7B60" cx="152.774" cy="21.026" r="1.07"/>
	<circle fill="#AB7B60" cx="152.774" cy="28.487" r="1.07"/>
	<path d="M87.873,16.576l0.006-0.161H73.664v0c-0.041,1.26,0.969,2.303,2.23,2.303h1.52c1.163,0,2.131,0.894,2.224,2.053
		l0.825,10.326c0.048,0.605-0.43,1.123-1.037,1.123h-0.24c-0.575,0-1.04,0.466-1.04,1.04l0,0h5.07l0,0c0-0.575-0.466-1.04-1.04-1.04
		h-0.257c-0.594,0-1.068-0.497-1.039-1.091l0.5-10.289c0.058-1.189,1.038-2.123,2.228-2.123h2.037
		C86.841,18.718,87.825,17.773,87.873,16.576z"/>
	<path fill="#AB7B60" d="M95.707,17.382v-0.967h-0.214v0.96L89.3,31.254h2.097l2.263-6.25c0.749-2.198,1.449-4.321,1.923-6.269h0.05
		c0.45,1.973,1.074,4.021,1.798,6.294l2.152,6.225h2.006L95.707,17.382z"/>
	<path fill="#222222" d="M46.004,24.857v-0.014h7.303v-6.239h-7.303v-2.153h-1.947v16.78h1.947v-8.313h7.306v8.313h1.852v-8.375
		H46.004z M46.004,20.111h5.959v3.225h-5.959V20.111z"/>
	<path fill="#AB7B60" d="M120.661,24.861v-0.014h7.303v-6.239h-7.303v-2.153h-1.947v16.78h1.947v-8.313h7.306v8.313h1.852v-8.375
		H120.661z M120.661,20.115h5.959v3.225h-5.959V20.115z"/>
	<path fill="#AB7B60" d="M98.037,31.254c0,1.088-1.16,1.971-2.592,1.971c-1.432,0-2.592-0.882-2.592-1.971"/>
</g>
<g>
</g>
<g>
</g>
<g>
</g>
<g>
</g>
<g>
</g>
<g>
</g>
</svg>
